:FULLY-SPECIFIED
:FORCE-ALL-JOINTS-BE-3DOF
:DEGREES
136
root 7.71654 16.6958 -26.337 -8.01596 12.6292 1.97025
lfemur -8.37319 13.8229 -18.4816
ltibia 33.125 -0 0
lfoot -16.072 -6.38256 -0.0744297
ltoes 20.4315 -0 0
rfemur -81.0811 -26.8484 34.1522
rtibia 75.5694 -0 0
rfoot 8.61232 22.0295 0.0164127
rtoes -30.3584 0 0
lowerback 14.641 -3.13884 -6.03182
upperback 4.59137 -4.98649 -0.241565
thorax -2.77917 -2.48482 3.92084
lowerneck -12.0576 -1.9416 0.0248832
upperneck 0.78823 -2.71316 2.81786
head 2.39797 -1.25084 0.752232
lclavicle 3.19426e-14 1.39578e-14 3.89331e-30
lhumerus -38.7584 -22.1716 92.7787
lradius 49.0621 -0 0
lwrist 11.5561 0 0
lhand 13.5496 8.40709 0.214133
lfingers 7.12502 -0 0
lthumb 38.4291 33.6241 0.0384886
rclavicle 3.19426e-14 1.39578e-14 3.89331e-30
rhumerus -46.3046 -13.0636 -60.9404
rradius 76.858 -0 0
rwrist -8.10355 0 0
rhand -9.35497 -30.3957 3.36703
rfingers 7.12502 -0 0
rthumb 16.5247 -58.1618 3.54639
137
root 7.66308 16.6646 -26.3207 -7.6637 13.4728 1.99375
lfemur -9.126 14.5536 -18.3741
ltibia 33.7735 -0 0
lfoot -16.3344 -5.70082 -0.0775665
ltoes 18.4773 -0 0
rfemur -81.7328 -27.3242 34.3141
rtibia 80.4887 -0 0
rfoot 10.1581 22.055 0.0171059
rtoes -29.8824 0 0
lowerback 14.529 -3.40119 -6.25131
upperback 4.5005 -5.36431 -0.391442
thorax -2.76626 -2.66964 3.93478
lowerneck -12.0114 -2.0388 -0.135073
upperneck 0.687627 -2.82803 3.06622
head 2.36603 -1.30184 0.854691
lclavicle 3.88704e-14 1.26081e-14 4.05725e-30
lhumerus -38.3496 -23.3615 92.9053
lradius 48.7441 -0 0
lwrist 11.2384 0 0
lhand 14.7371 8.84096 0.223169
lfingers 7.12502 -0 0
lthumb 39.5442 33.7071 0.0401119
rclavicle 3.88704e-14 1.26081e-14 4.05725e-30
rhumerus -47.2779 -13.7523 -62.0484
rradius 78.5729 -0 0
rwrist -7.88972 0 0
rhand -12.8656 -32.7516 3.51205
rfingers 7.12502 -0 0
rthumb 13.1391 -60.736 3.69918
138
root 7.60913 16.6332 -26.3043 -7.30656 14.324 2.02297
lfemur -9.88686 15.2923 -18.2754
ltibia 34.4279 -0 0
lfoot -16.5993 -5.01288 -0.0775665
ltoes 16.5051 -0 0
rfemur -82.3949 -27.8027 34.4845
rtibia 85.4529 -0 0
rfoot 11.718 22.0809 0.0171059
rtoes -29.402 0 0
lowerback 14.4169 -3.66638 -6.47235
upperback 4.40974 -5.74582 -0.542179
thorax -2.75327 -2.85615 3.94881
lowerneck -11.9644 -2.13675 -0.296584
upperneck 0.585588 -2.94352 3.31708
head 2.3337 -1.35326 0.958119
lclavicle 4.58616e-14 1.1246e-14 4.05725e-30
lhumerus -37.9361 -24.5632 93.0248
lradius 48.4231 -0 0
lwrist 10.9177 0 0
lhand 15.9356 9.27889 0.223169
lfingers 7.12502 -0 0
lthumb 40.6697 33.7909 0.0401119
rclavicle 4.58616e-14 1.1246e-14 4.05725e-30
rhumerus -48.2491 -14.4656 -63.1577
rradius 80.3034 -0 0
rwrist -7.67394 0 0
rhand -16.4116 -35.1339 3.51205
rfingers 7.12502 -0 0
rthumb 9.71872 -63.3387 3.69918
139
root 7.55568 16.6021 -26.288 -6.95083 15.1673 2.05747
lfemur -10.6422 16.0256 -18.1873
ltibia 35.0764 -0 0
lfoot -16.8617 -4.33115 -0.0744297
ltoes 14.5509 -0 0
rfemur -83.0554 -28.275 34.6602
rtibia 90.3722 -0 0
rfoot 13.2638 22.1064 0.0164127
rtoes -28.926 0 0
lowerback 14.3068 -3.92958 -6.69094
upperback 4.32074 -6.1241 -0.69105
thorax -2.74044 -3.04097 3.96267
lowerneck -11.9176 -2.23369 -0.456718
upperneck 0.483966 -3.05751 3.5659
head 2.30158 -1.40415 1.06064
lclavicle 5.27894e-14 9.89633e-15 3.89331e-30
lhumerus -37.525 -25.7546 93.1349
lradius 48.1051 -0 0
lwrist 10.6 0 0
lhand 17.1231 9.71276 0.214133
lfingers 7.12502 -0 0
lthumb 41.7848 33.8739 0.0384886
rclavicle 5.27894e-14 9.89633e-15 3.89331e-30
rhumerus -49.2003 -15.1903 -64.248
rradius 82.0183 -0 0
rwrist -7.46011 0 0
rhand -19.9222 -37.4898 3.36703
rfingers 7.12502 -0 0
rthumb 6.33314 -65.9129 3.54639
140
root 7.50369 16.5718 -26.2721 -6.60295 15.9872 2.09637
lfemur -11.3784 16.7397 -18.111
ltibia 35.707 -0 0
lfoot -17.1168 -3.66821 -0.068385
ltoes 12.6504 -0 0
rfemur -83.7023 -28.7327 34.8378
rtibia 95.1562 -0 0
rfoot 14.7671 22.1313 0.0150771
rtoes -28.4631 0 0
lowerback 14.2007 -4.18595 -6.9031
upperback 4.23508 -6.49221 -0.835366
thorax -2.72801 -3.22072 3.97611
lowerneck -11.8718 -2.32784 -0.612538
upperneck 0.384652 -3.16795 3.80809
head 2.27025 -1.45359 1.16037
lclavicle 5.95268e-14 8.58373e-15 3.57734e-30
lhumerus -37.1237 -26.914 93.2338
lradius 47.7958 -0 0
lwrist 10.291 0 0
lhand 18.2779 10.1344 0.196724
lfingers 7.12502 -0 0
lthumb 42.8694 33.9546 0.0353607
rclavicle 5.95268e-14 8.58373e-15 3.57734e-30
rhumerus -50.1148 -15.9117 -65.2999
rradius 83.686 -0 0
rwrist -7.25216 0 0
rhand -23.3272 -39.7679 3.08828
rfingers 7.12502 -0 0
rthumb 3.05116 -68.4029 3.25273
141
root 7.45415 16.543 -26.257 -6.26957 16.7683 2.13843
lfemur -12.0817 17.421 -18.047
ltibia 36.3079 -0 0
lfoot -17.3599 -3.03654 -0.0598789
ltoes 10.8394 -0 0
rfemur -84.3228 -29.1671 35.0132
rtibia 99.7149 -0 0
rfoot 16.1996 22.1549 0.0131985
rtoes -28.0221 0 0
lowerback 14.1005 -4.4306 -7.1049
upperback 4.15425 -6.84317 -0.97247
thorax -2.7162 -3.39201 3.98888
lowerneck -11.8279 -2.41743 -0.761098
upperneck 0.289572 -3.2728 4.03908
head 2.24031 -1.50065 1.25543
lclavicle 6.59468e-14 7.33294e-15 3.13264e-30
lhumerus -36.7394 -28.0193 93.3205
lradius 47.5011 -0 0
lwrist 9.99657 0 0
lhand 19.3782 10.5359 0.172231
lfingers 7.12502 -0 0
lthumb 43.9028 34.0314 0.0309596
rclavicle 6.59468e-14 7.33294e-15 3.13264e-30
rhumerus -50.9763 -16.6139 -66.2946
rradius 85.2751 -0 0
rwrist -7.054 0 0
rhand -26.558 -41.919 2.69766
rfingers 7.12502 -0 0
rthumb -0.0605472 -70.7556 2.84123
142
root 7.40804 16.5161 -26.243 -5.95746 17.4951 2.18203
lfemur -12.738 18.0558 -17.9951
ltibia 36.8672 -0 0
lfoot -17.586 -2.44863 -0.0495546
ltoes 9.1537 -0 0
rfemur -84.9041 -29.5699 35.182
rtibia 103.958 -0 0
rfoot 17.533 22.1768 0.0109195
rtoes -27.6115 0 0
lowerback 14.0079 -4.65864 -7.2924
upperback 4.07973 -7.17002 -1.09973
thorax -2.70524 -3.55144 4.00074
lowerneck -11.7868 -2.50073 -0.899449
upperneck 0.200684 -3.37004 4.25427
head 2.21238 -1.54441 1.34394
lclavicle 7.19227e-14 6.16869e-15 2.59277e-30
lhumerus -36.3798 -29.0486 93.3943
lradius 47.2268 -0 0
lwrist 9.72251 0 0
lhand 20.4022 10.909 0.142508
lfingers 7.12502 -0 0
lthumb 44.8648 34.1028 0.0256182
rclavicle 7.19227e-14 6.16869e-15 2.59277e-30
rhumerus -51.7696 -17.2804 -67.2139
rradius 86.7543 -0 0
rwrist -6.86956 0 0
rhand -29.5492 -43.8978 2.22607
rfingers 7.12502 -0 0
rthumb -2.93848 -72.9216 2.34447
143
root 7.36633 16.4919 -26.2303 -5.67353 18.1523 2.2252
lfemur -13.3331 18.6303 -17.9546
ltibia 37.3731 -0 0
lfoot -17.7904 -1.91696 -0.0382197
ltoes 7.62911 -0 0
rfemur -85.4331 -29.9329 35.3393
rtibia 107.796 -0 0
rfoot 18.739 22.1966 0.00841897
rtoes -27.2402 0 0
lowerback 13.9248 -4.86515 -7.46172
upperback 4.01292 -7.46576 -1.21453
thorax -2.69536 -3.69564 4.01144
lowerneck -11.7495 -2.57598 -1.02463
upperneck 0.11997 -3.4577 4.44903
head 2.18705 -1.58394 1.42401
lclavicle 7.73274e-14 5.11572e-15 1.99992e-30
lhumerus -36.0526 -29.9799 93.4554
lradius 46.9787 -0 0
lwrist 9.47465 0 0
lhand 21.3281 11.246 0.10989
lfingers 7.12502 -0 0
lthumb 45.7348 34.1673 0.0197559
rclavicle 7.73274e-14 5.11572e-15 1.99992e-30
rhumerus -52.4798 -17.8935 -68.0398
rradius 88.0922 -0 0
rwrist -6.70274 0 0
rhand -32.2382 -45.6637 1.71147
rfingers 7.12502 -0 0
rthumb -5.52266 -74.8562 1.80244
144
root 7.33001 16.4707 -26.2192 -5.42503 18.7243 2.26572
lfemur -13.8527 19.1311 -17.9243
ltibia 37.8136 -0 0
lfoot -17.9683 -1.45401 -0.0268044
ltoes 6.30144 -0 0
rfemur -85.8962 -30.2479 35.48
rtibia 111.138 -0 0
rfoot 19.7892 22.2138 0.00590219
rtoes -26.9168 0 0
lowerback 13.8529 -5.04517 -7.60896
upperback 3.95518 -7.72341 -1.31429
thorax -2.68677 -3.82121 4.02074
lowerneck -11.7169 -2.64144 -1.1337
upperneck 0.0494345 -3.53381 4.61874
head 2.16495 -1.61835 1.49375
lclavicle 8.20341e-14 4.19875e-15 1.40273e-30
lhumerus -35.7662 -30.7911 93.504
lradius 46.7626 -0 0
lwrist 9.25881 0 0
lhand 22.1342 11.539 0.0770533
lfingers 7.12502 -0 0
lthumb 46.4926 34.2234 0.0138523
rclavicle 8.20341e-14 4.19875e-15 1.40273e-30
rhumerus -53.0928 -18.4354 -68.7549
rradius 89.2573 -0 0
rwrist -6.55748 0 0
rhand -34.5656 -47.18 1.1965
rfingers 7.12502 -0 0
rthumb -7.75651 -76.5192 1.26006
145
root 7.30006 16.4533 -26.2101 -5.21912 19.1959 2.30122
lfemur -14.2821 19.5441 -17.9029
ltibia 38.1769 -0 0
lfoot -18.1149 -1.07223 -0.0163086
ltoes 5.20642 -0 0
rfemur -86.2799 -30.507 35.5985
rtibia 113.894 -0 0
rfoot 20.6553 22.228 0.00358994
rtoes -26.6502 0 0
lowerback 13.7939 -5.19378 -7.73026
upperback 3.90788 -7.93597 -1.39641
thorax -2.6797 -3.92477 4.0284
lowerneck -11.6899 -2.69538 -1.22367
upperneck -0.00891023 -3.59642 4.75879
head 2.1467 -1.6467 1.55128
lclavicle 8.59157e-14 3.44251e-15 8.53533e-31
lhumerus -35.5287 -31.4603 93.5408
lradius 46.5844 -0 0
lwrist 9.08081 0 0
lhand 22.799 11.7803 0.0468688
lfingers 7.12502 -0 0
lthumb 47.1173 34.2696 0.00842722
rclavicle 8.59157e-14 3.44251e-15 8.53533e-31
rhumerus -53.5943 -18.8876 -69.3416
rradius 90.2181 -0 0
rwrist -6.43768 0 0
rhand -36.4739 -48.4137 0.72588
rfingers 7.12502 -0 0
rthumb -9.58603 -77.8737 0.764422
146
root 7.27745 16.4401 -26.2032 -5.0631 19.5518 2.32928
lfemur -14.6069 19.8559 -17.889
ltibia 38.4511 -0 0
lfoot -18.2256 -0.78409 -0.00773969
ltoes 4.37993 -0 0
rfemur -86.5706 -30.7021 35.6895
rtibia 115.975 -0 0
rfoot 21.309 22.2386 0.00170311
rtoes -26.4489 0 0
lowerback 13.7496 -5.30603 -7.82172
upperback 3.87237 -8.09643 -1.4583
thorax -2.67437 -4.00294 4.03417
lowerneck -11.6694 -2.73606 -1.2916
upperneck -0.0530497 -3.64358 4.86454
head 2.1329 -1.66809 1.59471
lclavicle 8.88455e-14 2.87172e-15 4.05092e-31
lhumerus -35.3487 -31.9654 93.5666
lradius 46.45 -0 0
lwrist 8.94646 0 0
lhand 23.3005 11.9621 0.0222402
lfingers 7.12502 -0 0
lthumb 47.5888 34.3045 0.00399903
rclavicle 8.88455e-14 2.87172e-15 4.05092e-31
rhumerus -53.9705 -19.2322 -69.7828
rradius 90.9433 -0 0
rwrist -6.34726 0 0
rhand -37.9072 -49.3341 0.343675
rfingers 7.12502 -0 0
rthumb -10.9587 -78.8851 0.361916
147
root 7.26317 16.4318 -26.1988 -4.96426 19.7766 2.34756
lfemur -14.8123 20.053 -17.8811
ltibia 38.6243 -0 0
lfoot -18.2954 -0.602057 -0.00203923
ltoes 3.85791 -0 0
rfemur -86.7548 -30.8251 35.7477
rtibia 117.289 -0 0
rfoot 21.7219 22.2454 0.000448676
rtoes -26.3217 0 0
lowerback 13.7217 -5.37697 -7.87947
upperback 3.85002 -8.19784 -1.49736
thorax -2.67101 -4.05232 4.03781
lowerneck -11.6565 -2.76175 -1.33453
upperneck -0.0809807 -3.67334 4.93136
head 2.12417 -1.68159 1.62215
lclavicle 9.06964e-14 2.51112e-15 1.06736e-31
lhumerus -35.2346 -32.2845 93.582
lradius 46.365 -0 0
lwrist 8.86159 0 0
lhand 23.6174 12.0769 0.00585936
lfingers 7.12502 -0 0
lthumb 47.8867 34.3264 0.0010536
rclavicle 9.06964e-14 2.51112e-15 1.06736e-31
rhumerus -54.2071 -19.4513 -70.0608
rradius 91.4014 -0 0
rwrist -6.29013 0 0
rhand -38.8094 -49.9105 0.0904062
rfingers 7.12502 -0 0
rthumb -11.8222 -79.519 0.0952038
